<mxfile host="app.diagrams.net" modified="2023-09-25T14:15:25.138Z" agent="Mozilla/5.0 (Windows NT 10.0; Win64; x64) AppleWebKit/537.36 (KHTML, like Gecko) Chrome/116.0.0.0 Safari/537.36 OPR/102.0.0.0" etag="WvoJO5PEiXkg_D5NUSKp" version="21.6.9" type="device">
  <diagram name="Seite-1" id="ol81LERDRBk21G_X8ZIZ">
    <mxGraphModel dx="2033" dy="1157" grid="1" gridSize="10" guides="1" tooltips="1" connect="1" arrows="1" fold="1" page="1" pageScale="1" pageWidth="827" pageHeight="1169" math="0" shadow="0">
      <root>
        <mxCell id="0" />
        <mxCell id="1" parent="0" />
        <mxCell id="DrH6e3tMe2jNyXuOdpQ_-4" value="" style="ellipse;shape=cloud;whiteSpace=wrap;html=1;fillColor=#f8cecc;strokeColor=#b85450;" parent="1" vertex="1">
          <mxGeometry x="130" y="60" width="90" height="65" as="geometry" />
        </mxCell>
        <mxCell id="DrH6e3tMe2jNyXuOdpQ_-2" value="" style="endArrow=none;html=1;rounded=0;" parent="1" edge="1">
          <mxGeometry width="50" height="50" relative="1" as="geometry">
            <mxPoint x="60" y="390" as="sourcePoint" />
            <mxPoint x="60" y="390" as="targetPoint" />
            <Array as="points">
              <mxPoint x="60" y="40" />
              <mxPoint x="220" y="40" />
              <mxPoint x="220" y="60" />
              <mxPoint x="130" y="60" />
              <mxPoint x="130" y="130" />
              <mxPoint x="220" y="130" />
              <mxPoint x="220" y="140" />
              <mxPoint x="130" y="140" />
              <mxPoint x="130" y="210" />
              <mxPoint x="220" y="210" />
              <mxPoint x="220" y="220" />
              <mxPoint x="130" y="220" />
              <mxPoint x="130" y="290" />
              <mxPoint x="220" y="290" />
              <mxPoint x="220" y="300" />
              <mxPoint x="130" y="300" />
              <mxPoint x="130" y="370" />
              <mxPoint x="220" y="370" />
              <mxPoint x="220" y="390" />
            </Array>
          </mxGeometry>
        </mxCell>
        <mxCell id="DrH6e3tMe2jNyXuOdpQ_-3" value="Nachricht A" style="text;html=1;strokeColor=none;fillColor=none;align=center;verticalAlign=middle;whiteSpace=wrap;rounded=0;fontSize=16;" parent="1" vertex="1">
          <mxGeometry x="145" y="81.5" width="60" height="30" as="geometry" />
        </mxCell>
        <mxCell id="DrH6e3tMe2jNyXuOdpQ_-5" value="" style="ellipse;shape=cloud;whiteSpace=wrap;html=1;fillColor=#fff2cc;strokeColor=#d6b656;" parent="1" vertex="1">
          <mxGeometry x="130" y="140" width="90" height="65" as="geometry" />
        </mxCell>
        <mxCell id="DrH6e3tMe2jNyXuOdpQ_-6" value="Nachricht B" style="text;html=1;strokeColor=none;fillColor=none;align=center;verticalAlign=middle;whiteSpace=wrap;rounded=0;fontSize=16;" parent="1" vertex="1">
          <mxGeometry x="145" y="162.5" width="60" height="30" as="geometry" />
        </mxCell>
        <mxCell id="DrH6e3tMe2jNyXuOdpQ_-7" value="" style="ellipse;shape=cloud;whiteSpace=wrap;html=1;fillColor=#d5e8d4;strokeColor=#82b366;" parent="1" vertex="1">
          <mxGeometry x="130" y="220" width="90" height="65" as="geometry" />
        </mxCell>
        <mxCell id="DrH6e3tMe2jNyXuOdpQ_-8" value="Nachricht C" style="text;html=1;strokeColor=none;fillColor=none;align=center;verticalAlign=middle;whiteSpace=wrap;rounded=0;fontSize=16;" parent="1" vertex="1">
          <mxGeometry x="144.6" y="242.5" width="60" height="30" as="geometry" />
        </mxCell>
        <mxCell id="DrH6e3tMe2jNyXuOdpQ_-9" value="" style="ellipse;shape=cloud;whiteSpace=wrap;html=1;fillColor=#dae8fc;strokeColor=#6c8ebf;" parent="1" vertex="1">
          <mxGeometry x="130" y="300" width="90" height="65" as="geometry" />
        </mxCell>
        <mxCell id="DrH6e3tMe2jNyXuOdpQ_-10" value="Nachricht D" style="text;html=1;strokeColor=none;fillColor=none;align=center;verticalAlign=middle;whiteSpace=wrap;rounded=0;fontSize=16;" parent="1" vertex="1">
          <mxGeometry x="144.6" y="322.5" width="60" height="30" as="geometry" />
        </mxCell>
        <mxCell id="DrH6e3tMe2jNyXuOdpQ_-11" value="" style="endArrow=none;html=1;rounded=0;" parent="1" edge="1">
          <mxGeometry width="50" height="50" relative="1" as="geometry">
            <mxPoint x="220" y="131" as="sourcePoint" />
            <mxPoint x="220" y="61" as="targetPoint" />
          </mxGeometry>
        </mxCell>
        <mxCell id="DrH6e3tMe2jNyXuOdpQ_-14" value="" style="endArrow=none;html=1;rounded=0;" parent="1" edge="1">
          <mxGeometry width="50" height="50" relative="1" as="geometry">
            <mxPoint x="220" y="211" as="sourcePoint" />
            <mxPoint x="220" y="141" as="targetPoint" />
          </mxGeometry>
        </mxCell>
        <mxCell id="DrH6e3tMe2jNyXuOdpQ_-16" value="" style="endArrow=none;html=1;rounded=0;" parent="1" edge="1">
          <mxGeometry width="50" height="50" relative="1" as="geometry">
            <mxPoint x="220" y="290" as="sourcePoint" />
            <mxPoint x="220" y="220" as="targetPoint" />
          </mxGeometry>
        </mxCell>
        <mxCell id="DrH6e3tMe2jNyXuOdpQ_-17" value="" style="endArrow=none;html=1;rounded=0;" parent="1" edge="1">
          <mxGeometry width="50" height="50" relative="1" as="geometry">
            <mxPoint x="220" y="370" as="sourcePoint" />
            <mxPoint x="220" y="300" as="targetPoint" />
          </mxGeometry>
        </mxCell>
        <mxCell id="DrH6e3tMe2jNyXuOdpQ_-18" value="System zur Bildung von Tiles" style="text;html=1;strokeColor=none;fillColor=none;align=center;verticalAlign=middle;whiteSpace=wrap;rounded=0;fontSize=16;" parent="1" vertex="1">
          <mxGeometry x="70" y="161" width="40" height="80" as="geometry" />
        </mxCell>
        <mxCell id="DrH6e3tMe2jNyXuOdpQ_-21" value="" style="endArrow=none;html=1;rounded=0;" parent="1" edge="1">
          <mxGeometry width="50" height="50" relative="1" as="geometry">
            <mxPoint x="400" y="171" as="sourcePoint" />
            <mxPoint x="400" y="171" as="targetPoint" />
            <Array as="points">
              <mxPoint x="400" y="161" />
              <mxPoint x="420" y="161" />
              <mxPoint x="420" y="101" />
              <mxPoint x="410" y="101" />
              <mxPoint x="400" y="101" />
              <mxPoint x="400" y="91" />
              <mxPoint x="510" y="91" />
              <mxPoint x="510" y="101" />
              <mxPoint x="450" y="101" />
              <mxPoint x="450" y="161" />
              <mxPoint x="510" y="161" />
              <mxPoint x="510" y="171" />
            </Array>
          </mxGeometry>
        </mxCell>
        <mxCell id="DrH6e3tMe2jNyXuOdpQ_-22" value="" style="whiteSpace=wrap;html=1;aspect=fixed;fillColor=#f8cecc;strokeColor=#b85450;" parent="1" vertex="1">
          <mxGeometry x="400" y="101" width="10" height="10" as="geometry" />
        </mxCell>
        <mxCell id="DrH6e3tMe2jNyXuOdpQ_-23" value="" style="whiteSpace=wrap;html=1;aspect=fixed;fillColor=#f8cecc;strokeColor=#b85450;" parent="1" vertex="1">
          <mxGeometry x="400" y="151" width="10" height="10" as="geometry" />
        </mxCell>
        <mxCell id="DrH6e3tMe2jNyXuOdpQ_-24" value="" style="endArrow=none;html=1;rounded=0;" parent="1" edge="1">
          <mxGeometry width="50" height="50" relative="1" as="geometry">
            <mxPoint x="510" y="161" as="sourcePoint" />
            <mxPoint x="510" y="101" as="targetPoint" />
          </mxGeometry>
        </mxCell>
        <mxCell id="DrH6e3tMe2jNyXuOdpQ_-34" value="" style="ellipse;shape=cloud;whiteSpace=wrap;html=1;fillColor=#e1d5e7;strokeColor=#9673a6;" parent="1" vertex="1">
          <mxGeometry x="450" y="101" width="60" height="60" as="geometry" />
        </mxCell>
        <mxCell id="DrH6e3tMe2jNyXuOdpQ_-37" value="a)" style="text;html=1;strokeColor=none;fillColor=none;align=center;verticalAlign=middle;whiteSpace=wrap;rounded=0;fontSize=16;" parent="1" vertex="1">
          <mxGeometry x="40" y="40" width="20" height="20" as="geometry" />
        </mxCell>
        <mxCell id="DrH6e3tMe2jNyXuOdpQ_-38" value="" style="ellipse;shape=cloud;whiteSpace=wrap;html=1;fillColor=#f8cecc;strokeColor=#b85450;" parent="1" vertex="1">
          <mxGeometry x="620" y="61" width="140" height="65" as="geometry" />
        </mxCell>
        <mxCell id="DrH6e3tMe2jNyXuOdpQ_-39" value="" style="endArrow=none;html=1;rounded=0;" parent="1" edge="1">
          <mxGeometry width="50" height="50" relative="1" as="geometry">
            <mxPoint x="550" y="391" as="sourcePoint" />
            <mxPoint x="550" y="391" as="targetPoint" />
            <Array as="points">
              <mxPoint x="550" y="41" />
              <mxPoint x="710" y="41" />
              <mxPoint x="710" y="61" />
              <mxPoint x="620" y="61" />
              <mxPoint x="620" y="131" />
              <mxPoint x="710" y="131" />
              <mxPoint x="710" y="141" />
              <mxPoint x="620" y="141" />
              <mxPoint x="620" y="211" />
              <mxPoint x="710" y="211" />
              <mxPoint x="710" y="221" />
              <mxPoint x="620" y="221" />
              <mxPoint x="620" y="291" />
              <mxPoint x="710" y="291" />
              <mxPoint x="710" y="301" />
              <mxPoint x="620" y="301" />
              <mxPoint x="620" y="371" />
              <mxPoint x="710" y="371" />
              <mxPoint x="710" y="391" />
            </Array>
          </mxGeometry>
        </mxCell>
        <mxCell id="DrH6e3tMe2jNyXuOdpQ_-40" value="Nachricht A" style="text;html=1;strokeColor=none;fillColor=none;align=center;verticalAlign=middle;whiteSpace=wrap;rounded=0;fontSize=16;" parent="1" vertex="1">
          <mxGeometry x="660" y="80" width="60" height="30" as="geometry" />
        </mxCell>
        <mxCell id="DrH6e3tMe2jNyXuOdpQ_-41" value="" style="ellipse;shape=cloud;whiteSpace=wrap;html=1;fillColor=#fff2cc;strokeColor=#d6b656;" parent="1" vertex="1">
          <mxGeometry x="620" y="141" width="90" height="65" as="geometry" />
        </mxCell>
        <mxCell id="DrH6e3tMe2jNyXuOdpQ_-42" value="Nachricht B" style="text;html=1;strokeColor=none;fillColor=none;align=center;verticalAlign=middle;whiteSpace=wrap;rounded=0;fontSize=16;" parent="1" vertex="1">
          <mxGeometry x="634.6" y="162.5" width="60" height="30" as="geometry" />
        </mxCell>
        <mxCell id="DrH6e3tMe2jNyXuOdpQ_-43" value="" style="ellipse;shape=cloud;whiteSpace=wrap;html=1;fillColor=#d5e8d4;strokeColor=#82b366;" parent="1" vertex="1">
          <mxGeometry x="620" y="221" width="90" height="65" as="geometry" />
        </mxCell>
        <mxCell id="DrH6e3tMe2jNyXuOdpQ_-44" value="Nachricht C" style="text;html=1;strokeColor=none;fillColor=none;align=center;verticalAlign=middle;whiteSpace=wrap;rounded=0;fontSize=16;" parent="1" vertex="1">
          <mxGeometry x="634.6" y="242.5" width="60" height="30" as="geometry" />
        </mxCell>
        <mxCell id="DrH6e3tMe2jNyXuOdpQ_-45" value="" style="ellipse;shape=cloud;whiteSpace=wrap;html=1;fillColor=#dae8fc;strokeColor=#6c8ebf;" parent="1" vertex="1">
          <mxGeometry x="620" y="301" width="90" height="65" as="geometry" />
        </mxCell>
        <mxCell id="DrH6e3tMe2jNyXuOdpQ_-46" value="Nachricht D" style="text;html=1;strokeColor=none;fillColor=none;align=center;verticalAlign=middle;whiteSpace=wrap;rounded=0;fontSize=16;" parent="1" vertex="1">
          <mxGeometry x="634.6" y="322.5" width="60" height="30" as="geometry" />
        </mxCell>
        <mxCell id="DrH6e3tMe2jNyXuOdpQ_-48" value="" style="endArrow=none;html=1;rounded=0;" parent="1" edge="1">
          <mxGeometry width="50" height="50" relative="1" as="geometry">
            <mxPoint x="710" y="212" as="sourcePoint" />
            <mxPoint x="710" y="142" as="targetPoint" />
          </mxGeometry>
        </mxCell>
        <mxCell id="DrH6e3tMe2jNyXuOdpQ_-49" value="" style="endArrow=none;html=1;rounded=0;" parent="1" edge="1">
          <mxGeometry width="50" height="50" relative="1" as="geometry">
            <mxPoint x="710" y="291" as="sourcePoint" />
            <mxPoint x="710" y="221" as="targetPoint" />
          </mxGeometry>
        </mxCell>
        <mxCell id="DrH6e3tMe2jNyXuOdpQ_-50" value="" style="endArrow=none;html=1;rounded=0;" parent="1" edge="1">
          <mxGeometry width="50" height="50" relative="1" as="geometry">
            <mxPoint x="710" y="371" as="sourcePoint" />
            <mxPoint x="710" y="301" as="targetPoint" />
          </mxGeometry>
        </mxCell>
        <mxCell id="DrH6e3tMe2jNyXuOdpQ_-51" value="System zur Bildung von Tiles" style="text;html=1;strokeColor=none;fillColor=none;align=center;verticalAlign=middle;whiteSpace=wrap;rounded=0;fontSize=16;" parent="1" vertex="1">
          <mxGeometry x="560" y="162" width="40" height="80" as="geometry" />
        </mxCell>
        <mxCell id="DrH6e3tMe2jNyXuOdpQ_-68" value="b)" style="text;html=1;strokeColor=none;fillColor=none;align=center;verticalAlign=middle;whiteSpace=wrap;rounded=0;fontSize=16;" parent="1" vertex="1">
          <mxGeometry x="530" y="41" width="20" height="20" as="geometry" />
        </mxCell>
        <mxCell id="DrH6e3tMe2jNyXuOdpQ_-69" value="Sender aktiviert" style="text;html=1;strokeColor=none;fillColor=none;align=center;verticalAlign=middle;whiteSpace=wrap;rounded=0;fontSize=16;" parent="1" vertex="1">
          <mxGeometry x="720" y="30" width="60" height="30" as="geometry" />
        </mxCell>
        <mxCell id="DrH6e3tMe2jNyXuOdpQ_-70" value="" style="endArrow=none;html=1;rounded=0;" parent="1" edge="1">
          <mxGeometry width="50" height="50" relative="1" as="geometry">
            <mxPoint x="770" y="80" as="sourcePoint" />
            <mxPoint x="710" y="61" as="targetPoint" />
          </mxGeometry>
        </mxCell>
        <mxCell id="DrH6e3tMe2jNyXuOdpQ_-72" value="" style="endArrow=none;html=1;rounded=0;" parent="1" edge="1">
          <mxGeometry width="50" height="50" relative="1" as="geometry">
            <mxPoint x="60" y="759" as="sourcePoint" />
            <mxPoint x="60" y="759" as="targetPoint" />
            <Array as="points">
              <mxPoint x="60" y="409" />
              <mxPoint x="220.00000000000003" y="409" />
              <mxPoint x="220.00000000000003" y="429" />
              <mxPoint x="130.00000000000003" y="429" />
              <mxPoint x="130.00000000000003" y="499" />
              <mxPoint x="220.00000000000003" y="499" />
              <mxPoint x="220.00000000000003" y="509" />
              <mxPoint x="130.00000000000003" y="509" />
              <mxPoint x="130.00000000000003" y="579" />
              <mxPoint x="220.00000000000003" y="579" />
              <mxPoint x="220.00000000000003" y="589" />
              <mxPoint x="130.00000000000003" y="589" />
              <mxPoint x="130.00000000000003" y="659" />
              <mxPoint x="220.00000000000003" y="659" />
              <mxPoint x="220.00000000000003" y="669" />
              <mxPoint x="130.00000000000003" y="669" />
              <mxPoint x="130.00000000000003" y="739" />
              <mxPoint x="220.00000000000003" y="739" />
              <mxPoint x="220.00000000000003" y="759" />
            </Array>
          </mxGeometry>
        </mxCell>
        <mxCell id="DrH6e3tMe2jNyXuOdpQ_-74" value="" style="ellipse;shape=cloud;whiteSpace=wrap;html=1;fillColor=#fff2cc;strokeColor=#d6b656;" parent="1" vertex="1">
          <mxGeometry x="130.00000000000003" y="510" width="90" height="65" as="geometry" />
        </mxCell>
        <mxCell id="DrH6e3tMe2jNyXuOdpQ_-75" value="Nachricht B" style="text;html=1;strokeColor=none;fillColor=none;align=center;verticalAlign=middle;whiteSpace=wrap;rounded=0;fontSize=16;" parent="1" vertex="1">
          <mxGeometry x="145.00000000000003" y="531" width="60" height="30" as="geometry" />
        </mxCell>
        <mxCell id="DrH6e3tMe2jNyXuOdpQ_-76" value="" style="ellipse;shape=cloud;whiteSpace=wrap;html=1;fillColor=#d5e8d4;strokeColor=#82b366;" parent="1" vertex="1">
          <mxGeometry x="130.00000000000003" y="590" width="90" height="65" as="geometry" />
        </mxCell>
        <mxCell id="DrH6e3tMe2jNyXuOdpQ_-77" value="Nachricht C" style="text;html=1;strokeColor=none;fillColor=none;align=center;verticalAlign=middle;whiteSpace=wrap;rounded=0;fontSize=16;" parent="1" vertex="1">
          <mxGeometry x="144.60000000000002" y="611" width="60" height="30" as="geometry" />
        </mxCell>
        <mxCell id="DrH6e3tMe2jNyXuOdpQ_-78" value="" style="ellipse;shape=cloud;whiteSpace=wrap;html=1;fillColor=#dae8fc;strokeColor=#6c8ebf;" parent="1" vertex="1">
          <mxGeometry x="130.00000000000003" y="670" width="90" height="65" as="geometry" />
        </mxCell>
        <mxCell id="DrH6e3tMe2jNyXuOdpQ_-79" value="Nachricht D" style="text;html=1;strokeColor=none;fillColor=none;align=center;verticalAlign=middle;whiteSpace=wrap;rounded=0;fontSize=16;" parent="1" vertex="1">
          <mxGeometry x="145.00000000000003" y="690" width="60" height="30" as="geometry" />
        </mxCell>
        <mxCell id="DrH6e3tMe2jNyXuOdpQ_-80" value="" style="endArrow=none;html=1;rounded=0;" parent="1" edge="1">
          <mxGeometry width="50" height="50" relative="1" as="geometry">
            <mxPoint x="220.00000000000003" y="581" as="sourcePoint" />
            <mxPoint x="220" y="510" as="targetPoint" />
          </mxGeometry>
        </mxCell>
        <mxCell id="DrH6e3tMe2jNyXuOdpQ_-81" value="" style="endArrow=none;html=1;rounded=0;" parent="1" edge="1">
          <mxGeometry width="50" height="50" relative="1" as="geometry">
            <mxPoint x="220.00000000000003" y="660" as="sourcePoint" />
            <mxPoint x="220.00000000000003" y="590" as="targetPoint" />
          </mxGeometry>
        </mxCell>
        <mxCell id="DrH6e3tMe2jNyXuOdpQ_-82" value="" style="endArrow=none;html=1;rounded=0;" parent="1" edge="1">
          <mxGeometry width="50" height="50" relative="1" as="geometry">
            <mxPoint x="220.00000000000003" y="740" as="sourcePoint" />
            <mxPoint x="220.00000000000003" y="670" as="targetPoint" />
          </mxGeometry>
        </mxCell>
        <mxCell id="DrH6e3tMe2jNyXuOdpQ_-83" value="System zur Bildung von Tiles" style="text;html=1;strokeColor=none;fillColor=none;align=center;verticalAlign=middle;whiteSpace=wrap;rounded=0;fontSize=16;" parent="1" vertex="1">
          <mxGeometry x="70" y="531" width="40" height="80" as="geometry" />
        </mxCell>
        <mxCell id="DrH6e3tMe2jNyXuOdpQ_-100" value="c)" style="text;html=1;strokeColor=none;fillColor=none;align=center;verticalAlign=middle;whiteSpace=wrap;rounded=0;fontSize=16;" parent="1" vertex="1">
          <mxGeometry x="40" y="409" width="20" height="20" as="geometry" />
        </mxCell>
        <mxCell id="DrH6e3tMe2jNyXuOdpQ_-101" value="Self-Assembly" style="text;html=1;strokeColor=none;fillColor=none;align=center;verticalAlign=middle;whiteSpace=wrap;rounded=0;fontSize=16;" parent="1" vertex="1">
          <mxGeometry x="249.66" y="409" width="80.69" height="30" as="geometry" />
        </mxCell>
        <mxCell id="DrH6e3tMe2jNyXuOdpQ_-104" value="" style="rounded=0;whiteSpace=wrap;html=1;fillColor=#f8cecc;strokeColor=#b85450;" parent="1" vertex="1">
          <mxGeometry x="240" y="449" width="100" height="40" as="geometry" />
        </mxCell>
        <mxCell id="DrH6e3tMe2jNyXuOdpQ_-105" value="" style="ellipse;shape=cloud;whiteSpace=wrap;html=1;fillColor=#f8cecc;strokeColor=#b85450;" parent="1" vertex="1">
          <mxGeometry x="129.6" y="433.5" width="90" height="65" as="geometry" />
        </mxCell>
        <mxCell id="DrH6e3tMe2jNyXuOdpQ_-106" value="Nachricht A" style="text;html=1;strokeColor=none;fillColor=none;align=center;verticalAlign=middle;whiteSpace=wrap;rounded=0;fontSize=16;" parent="1" vertex="1">
          <mxGeometry x="144.6" y="456.5" width="60" height="30" as="geometry" />
        </mxCell>
        <mxCell id="DrH6e3tMe2jNyXuOdpQ_-108" value="" style="endArrow=none;html=1;rounded=0;" parent="1" edge="1">
          <mxGeometry width="50" height="50" relative="1" as="geometry">
            <mxPoint x="220.00000000000003" y="499" as="sourcePoint" />
            <mxPoint x="220" y="428" as="targetPoint" />
          </mxGeometry>
        </mxCell>
        <mxCell id="DrH6e3tMe2jNyXuOdpQ_-109" value="Tiles nach-&lt;br&gt;füllen" style="text;html=1;strokeColor=none;fillColor=none;align=center;verticalAlign=middle;whiteSpace=wrap;rounded=0;fontSize=16;" parent="1" vertex="1">
          <mxGeometry x="69.6" y="445.5" width="60" height="41" as="geometry" />
        </mxCell>
        <mxCell id="DrH6e3tMe2jNyXuOdpQ_-110" value="" style="endArrow=none;html=1;rounded=0;" parent="1" edge="1">
          <mxGeometry width="50" height="50" relative="1" as="geometry">
            <mxPoint x="550" y="759" as="sourcePoint" />
            <mxPoint x="550" y="759" as="targetPoint" />
            <Array as="points">
              <mxPoint x="550" y="409" />
              <mxPoint x="710" y="409" />
              <mxPoint x="710" y="429" />
              <mxPoint x="620" y="429" />
              <mxPoint x="620" y="499" />
              <mxPoint x="710" y="499" />
              <mxPoint x="710" y="509" />
              <mxPoint x="620" y="509" />
              <mxPoint x="620" y="579" />
              <mxPoint x="710" y="579" />
              <mxPoint x="710" y="589" />
              <mxPoint x="620" y="589" />
              <mxPoint x="620" y="659" />
              <mxPoint x="710" y="659" />
              <mxPoint x="710" y="669" />
              <mxPoint x="620" y="669" />
              <mxPoint x="620" y="739" />
              <mxPoint x="710" y="739" />
              <mxPoint x="710" y="759" />
            </Array>
          </mxGeometry>
        </mxCell>
        <mxCell id="DrH6e3tMe2jNyXuOdpQ_-111" value="" style="ellipse;shape=cloud;whiteSpace=wrap;html=1;fillColor=#fff2cc;strokeColor=#d6b656;" parent="1" vertex="1">
          <mxGeometry x="620" y="510" width="90" height="65" as="geometry" />
        </mxCell>
        <mxCell id="DrH6e3tMe2jNyXuOdpQ_-112" value="Nachricht B" style="text;html=1;strokeColor=none;fillColor=none;align=center;verticalAlign=middle;whiteSpace=wrap;rounded=0;fontSize=16;" parent="1" vertex="1">
          <mxGeometry x="634.6" y="531" width="60" height="30" as="geometry" />
        </mxCell>
        <mxCell id="DrH6e3tMe2jNyXuOdpQ_-113" value="" style="ellipse;shape=cloud;whiteSpace=wrap;html=1;fillColor=#d5e8d4;strokeColor=#82b366;" parent="1" vertex="1">
          <mxGeometry x="620" y="590" width="90" height="65" as="geometry" />
        </mxCell>
        <mxCell id="DrH6e3tMe2jNyXuOdpQ_-114" value="Nachricht C" style="text;html=1;strokeColor=none;fillColor=none;align=center;verticalAlign=middle;whiteSpace=wrap;rounded=0;fontSize=16;" parent="1" vertex="1">
          <mxGeometry x="634.6" y="611" width="60" height="30" as="geometry" />
        </mxCell>
        <mxCell id="DrH6e3tMe2jNyXuOdpQ_-115" value="" style="ellipse;shape=cloud;whiteSpace=wrap;html=1;fillColor=#dae8fc;strokeColor=#6c8ebf;" parent="1" vertex="1">
          <mxGeometry x="620" y="670" width="90" height="65" as="geometry" />
        </mxCell>
        <mxCell id="DrH6e3tMe2jNyXuOdpQ_-116" value="Nachricht D" style="text;html=1;strokeColor=none;fillColor=none;align=center;verticalAlign=middle;whiteSpace=wrap;rounded=0;fontSize=16;" parent="1" vertex="1">
          <mxGeometry x="634.6" y="690" width="60" height="30" as="geometry" />
        </mxCell>
        <mxCell id="DrH6e3tMe2jNyXuOdpQ_-117" value="" style="endArrow=none;html=1;rounded=0;" parent="1" edge="1">
          <mxGeometry width="50" height="50" relative="1" as="geometry">
            <mxPoint x="710" y="581" as="sourcePoint" />
            <mxPoint x="710" y="510" as="targetPoint" />
          </mxGeometry>
        </mxCell>
        <mxCell id="DrH6e3tMe2jNyXuOdpQ_-118" value="" style="endArrow=none;html=1;rounded=0;" parent="1" edge="1">
          <mxGeometry width="50" height="50" relative="1" as="geometry">
            <mxPoint x="710" y="660" as="sourcePoint" />
            <mxPoint x="710" y="590" as="targetPoint" />
          </mxGeometry>
        </mxCell>
        <mxCell id="DrH6e3tMe2jNyXuOdpQ_-119" value="" style="endArrow=none;html=1;rounded=0;" parent="1" edge="1">
          <mxGeometry width="50" height="50" relative="1" as="geometry">
            <mxPoint x="710" y="740" as="sourcePoint" />
            <mxPoint x="710" y="670" as="targetPoint" />
          </mxGeometry>
        </mxCell>
        <mxCell id="DrH6e3tMe2jNyXuOdpQ_-120" value="System zur Bildung von Tiles" style="text;html=1;strokeColor=none;fillColor=none;align=center;verticalAlign=middle;whiteSpace=wrap;rounded=0;fontSize=16;" parent="1" vertex="1">
          <mxGeometry x="560" y="531" width="40" height="80" as="geometry" />
        </mxCell>
        <mxCell id="DrH6e3tMe2jNyXuOdpQ_-137" value="d)" style="text;html=1;strokeColor=none;fillColor=none;align=center;verticalAlign=middle;whiteSpace=wrap;rounded=0;fontSize=16;" parent="1" vertex="1">
          <mxGeometry x="530" y="409" width="20" height="20" as="geometry" />
        </mxCell>
        <mxCell id="DrH6e3tMe2jNyXuOdpQ_-140" value="" style="ellipse;shape=cloud;whiteSpace=wrap;html=1;fillColor=#f8cecc;strokeColor=#b85450;" parent="1" vertex="1">
          <mxGeometry x="619.6" y="433.5" width="90" height="65" as="geometry" />
        </mxCell>
        <mxCell id="DrH6e3tMe2jNyXuOdpQ_-141" value="Nachricht A" style="text;html=1;strokeColor=none;fillColor=none;align=center;verticalAlign=middle;whiteSpace=wrap;rounded=0;fontSize=16;" parent="1" vertex="1">
          <mxGeometry x="635" y="456.5" width="60" height="30" as="geometry" />
        </mxCell>
        <mxCell id="DrH6e3tMe2jNyXuOdpQ_-142" value="" style="endArrow=none;html=1;rounded=0;" parent="1" edge="1">
          <mxGeometry width="50" height="50" relative="1" as="geometry">
            <mxPoint x="710" y="499" as="sourcePoint" />
            <mxPoint x="710" y="428" as="targetPoint" />
          </mxGeometry>
        </mxCell>
        <mxCell id="DrH6e3tMe2jNyXuOdpQ_-185" value="" style="endArrow=none;html=1;rounded=0;" parent="1" edge="1">
          <mxGeometry width="50" height="50" relative="1" as="geometry">
            <mxPoint x="400" y="262" as="sourcePoint" />
            <mxPoint x="400" y="262" as="targetPoint" />
            <Array as="points">
              <mxPoint x="400" y="252" />
              <mxPoint x="420" y="252" />
              <mxPoint x="420" y="192" />
              <mxPoint x="410" y="192" />
              <mxPoint x="400" y="192" />
              <mxPoint x="400" y="182" />
              <mxPoint x="510" y="182" />
              <mxPoint x="510" y="192" />
              <mxPoint x="450" y="192" />
              <mxPoint x="450" y="252" />
              <mxPoint x="510" y="252" />
              <mxPoint x="510" y="262" />
            </Array>
          </mxGeometry>
        </mxCell>
        <mxCell id="DrH6e3tMe2jNyXuOdpQ_-186" value="" style="whiteSpace=wrap;html=1;aspect=fixed;fillColor=#f8cecc;strokeColor=#b85450;" parent="1" vertex="1">
          <mxGeometry x="400" y="192" width="10" height="10" as="geometry" />
        </mxCell>
        <mxCell id="DrH6e3tMe2jNyXuOdpQ_-187" value="" style="whiteSpace=wrap;html=1;aspect=fixed;fillColor=#f8cecc;strokeColor=#b85450;" parent="1" vertex="1">
          <mxGeometry x="400" y="242" width="10" height="10" as="geometry" />
        </mxCell>
        <mxCell id="DrH6e3tMe2jNyXuOdpQ_-188" value="" style="endArrow=none;html=1;rounded=0;" parent="1" edge="1">
          <mxGeometry width="50" height="50" relative="1" as="geometry">
            <mxPoint x="510" y="252" as="sourcePoint" />
            <mxPoint x="510" y="192" as="targetPoint" />
          </mxGeometry>
        </mxCell>
        <mxCell id="DrH6e3tMe2jNyXuOdpQ_-189" value="" style="ellipse;shape=cloud;whiteSpace=wrap;html=1;fillColor=#e1d5e7;strokeColor=#9673a6;" parent="1" vertex="1">
          <mxGeometry x="450" y="192" width="60" height="60" as="geometry" />
        </mxCell>
        <mxCell id="DrH6e3tMe2jNyXuOdpQ_-190" value="" style="endArrow=none;html=1;rounded=0;" parent="1" edge="1">
          <mxGeometry width="50" height="50" relative="1" as="geometry">
            <mxPoint x="399.31" y="352" as="sourcePoint" />
            <mxPoint x="399.31" y="352" as="targetPoint" />
            <Array as="points">
              <mxPoint x="399.31" y="342" />
              <mxPoint x="419.31" y="342" />
              <mxPoint x="419.31" y="282" />
              <mxPoint x="409.31" y="282" />
              <mxPoint x="399.31" y="282" />
              <mxPoint x="399.31" y="272" />
              <mxPoint x="509.31" y="272" />
              <mxPoint x="509.31" y="282" />
              <mxPoint x="449.31" y="282" />
              <mxPoint x="449.31" y="342" />
              <mxPoint x="509.31" y="342" />
              <mxPoint x="509.31" y="352" />
            </Array>
          </mxGeometry>
        </mxCell>
        <mxCell id="DrH6e3tMe2jNyXuOdpQ_-191" value="" style="whiteSpace=wrap;html=1;aspect=fixed;fillColor=#f8cecc;strokeColor=#b85450;" parent="1" vertex="1">
          <mxGeometry x="399.31" y="282" width="10" height="10" as="geometry" />
        </mxCell>
        <mxCell id="DrH6e3tMe2jNyXuOdpQ_-192" value="" style="whiteSpace=wrap;html=1;aspect=fixed;fillColor=#f8cecc;strokeColor=#b85450;" parent="1" vertex="1">
          <mxGeometry x="399.31" y="332" width="10" height="10" as="geometry" />
        </mxCell>
        <mxCell id="DrH6e3tMe2jNyXuOdpQ_-193" value="" style="endArrow=none;html=1;rounded=0;" parent="1" edge="1">
          <mxGeometry width="50" height="50" relative="1" as="geometry">
            <mxPoint x="509.31" y="342" as="sourcePoint" />
            <mxPoint x="509.31" y="282" as="targetPoint" />
          </mxGeometry>
        </mxCell>
        <mxCell id="DrH6e3tMe2jNyXuOdpQ_-194" value="" style="ellipse;shape=cloud;whiteSpace=wrap;html=1;fillColor=#e1d5e7;strokeColor=#9673a6;" parent="1" vertex="1">
          <mxGeometry x="449.31" y="282" width="60" height="60" as="geometry" />
        </mxCell>
        <mxCell id="DrH6e3tMe2jNyXuOdpQ_-195" value="" style="endArrow=none;html=1;rounded=0;" parent="1" edge="1">
          <mxGeometry width="50" height="50" relative="1" as="geometry">
            <mxPoint x="889.86" y="171.5" as="sourcePoint" />
            <mxPoint x="889.86" y="171.5" as="targetPoint" />
            <Array as="points">
              <mxPoint x="889.86" y="161.5" />
              <mxPoint x="909.86" y="161.5" />
              <mxPoint x="909.86" y="101.5" />
              <mxPoint x="899.86" y="101.5" />
              <mxPoint x="889.86" y="101.5" />
              <mxPoint x="889.86" y="91.5" />
              <mxPoint x="999.86" y="91.5" />
              <mxPoint x="999.86" y="101.5" />
              <mxPoint x="939.86" y="101.5" />
              <mxPoint x="939.86" y="161.5" />
              <mxPoint x="999.86" y="161.5" />
              <mxPoint x="999.86" y="171.5" />
            </Array>
          </mxGeometry>
        </mxCell>
        <mxCell id="DrH6e3tMe2jNyXuOdpQ_-196" value="" style="whiteSpace=wrap;html=1;aspect=fixed;fillColor=#f8cecc;strokeColor=#b85450;" parent="1" vertex="1">
          <mxGeometry x="889.86" y="101.5" width="10" height="10" as="geometry" />
        </mxCell>
        <mxCell id="DrH6e3tMe2jNyXuOdpQ_-197" value="" style="whiteSpace=wrap;html=1;aspect=fixed;fillColor=#f8cecc;strokeColor=#b85450;" parent="1" vertex="1">
          <mxGeometry x="889.86" y="151.5" width="10" height="10" as="geometry" />
        </mxCell>
        <mxCell id="DrH6e3tMe2jNyXuOdpQ_-198" value="" style="endArrow=none;html=1;rounded=0;" parent="1" edge="1">
          <mxGeometry width="50" height="50" relative="1" as="geometry">
            <mxPoint x="999.86" y="161.5" as="sourcePoint" />
            <mxPoint x="999.86" y="101.5" as="targetPoint" />
          </mxGeometry>
        </mxCell>
        <mxCell id="DrH6e3tMe2jNyXuOdpQ_-199" value="" style="ellipse;shape=cloud;whiteSpace=wrap;html=1;fillColor=#e1d5e7;strokeColor=#9673a6;" parent="1" vertex="1">
          <mxGeometry x="939.86" y="101.5" width="60" height="60" as="geometry" />
        </mxCell>
        <mxCell id="DrH6e3tMe2jNyXuOdpQ_-200" value="" style="endArrow=none;html=1;rounded=0;" parent="1" edge="1">
          <mxGeometry width="50" height="50" relative="1" as="geometry">
            <mxPoint x="889.86" y="262.5" as="sourcePoint" />
            <mxPoint x="889.86" y="262.5" as="targetPoint" />
            <Array as="points">
              <mxPoint x="889.86" y="252.5" />
              <mxPoint x="909.86" y="252.5" />
              <mxPoint x="909.86" y="192.5" />
              <mxPoint x="899.86" y="192.5" />
              <mxPoint x="889.86" y="192.5" />
              <mxPoint x="889.86" y="182.5" />
              <mxPoint x="999.86" y="182.5" />
              <mxPoint x="999.86" y="192.5" />
              <mxPoint x="939.86" y="192.5" />
              <mxPoint x="939.86" y="252.5" />
              <mxPoint x="999.86" y="252.5" />
              <mxPoint x="999.86" y="262.5" />
            </Array>
          </mxGeometry>
        </mxCell>
        <mxCell id="DrH6e3tMe2jNyXuOdpQ_-201" value="" style="whiteSpace=wrap;html=1;aspect=fixed;fillColor=#f8cecc;strokeColor=#b85450;" parent="1" vertex="1">
          <mxGeometry x="889.86" y="192.5" width="10" height="10" as="geometry" />
        </mxCell>
        <mxCell id="DrH6e3tMe2jNyXuOdpQ_-202" value="" style="whiteSpace=wrap;html=1;aspect=fixed;fillColor=#f8cecc;strokeColor=#b85450;" parent="1" vertex="1">
          <mxGeometry x="889.86" y="242.5" width="10" height="10" as="geometry" />
        </mxCell>
        <mxCell id="DrH6e3tMe2jNyXuOdpQ_-203" value="" style="endArrow=none;html=1;rounded=0;" parent="1" edge="1">
          <mxGeometry width="50" height="50" relative="1" as="geometry">
            <mxPoint x="999.86" y="252.5" as="sourcePoint" />
            <mxPoint x="999.86" y="192.5" as="targetPoint" />
          </mxGeometry>
        </mxCell>
        <mxCell id="DrH6e3tMe2jNyXuOdpQ_-204" value="" style="ellipse;shape=cloud;whiteSpace=wrap;html=1;fillColor=#e1d5e7;strokeColor=#9673a6;" parent="1" vertex="1">
          <mxGeometry x="939.86" y="192.5" width="60" height="60" as="geometry" />
        </mxCell>
        <mxCell id="DrH6e3tMe2jNyXuOdpQ_-205" value="" style="endArrow=none;html=1;rounded=0;" parent="1" edge="1">
          <mxGeometry width="50" height="50" relative="1" as="geometry">
            <mxPoint x="889.1700000000001" y="352.5" as="sourcePoint" />
            <mxPoint x="889.1700000000001" y="352.5" as="targetPoint" />
            <Array as="points">
              <mxPoint x="889.1700000000001" y="342.5" />
              <mxPoint x="909.1700000000001" y="342.5" />
              <mxPoint x="909.1700000000001" y="282.5" />
              <mxPoint x="899.1700000000001" y="282.5" />
              <mxPoint x="889.1700000000001" y="282.5" />
              <mxPoint x="889.1700000000001" y="272.5" />
              <mxPoint x="999.17" y="272.5" />
              <mxPoint x="999.17" y="282.5" />
              <mxPoint x="939.1700000000001" y="282.5" />
              <mxPoint x="939.1700000000001" y="342.5" />
              <mxPoint x="999.17" y="342.5" />
              <mxPoint x="999.17" y="352.5" />
            </Array>
          </mxGeometry>
        </mxCell>
        <mxCell id="DrH6e3tMe2jNyXuOdpQ_-206" value="" style="whiteSpace=wrap;html=1;aspect=fixed;fillColor=#f8cecc;strokeColor=#b85450;" parent="1" vertex="1">
          <mxGeometry x="889.1700000000001" y="282.5" width="10" height="10" as="geometry" />
        </mxCell>
        <mxCell id="DrH6e3tMe2jNyXuOdpQ_-207" value="" style="whiteSpace=wrap;html=1;aspect=fixed;fillColor=#f8cecc;strokeColor=#b85450;" parent="1" vertex="1">
          <mxGeometry x="889.1700000000001" y="332.5" width="10" height="10" as="geometry" />
        </mxCell>
        <mxCell id="DrH6e3tMe2jNyXuOdpQ_-208" value="" style="endArrow=none;html=1;rounded=0;" parent="1" edge="1">
          <mxGeometry width="50" height="50" relative="1" as="geometry">
            <mxPoint x="999.17" y="342.5" as="sourcePoint" />
            <mxPoint x="999.17" y="282.5" as="targetPoint" />
          </mxGeometry>
        </mxCell>
        <mxCell id="DrH6e3tMe2jNyXuOdpQ_-209" value="" style="ellipse;shape=cloud;whiteSpace=wrap;html=1;fillColor=#e1d5e7;strokeColor=#9673a6;" parent="1" vertex="1">
          <mxGeometry x="939.1700000000001" y="282.5" width="60" height="60" as="geometry" />
        </mxCell>
        <mxCell id="DrH6e3tMe2jNyXuOdpQ_-210" value="" style="endArrow=none;html=1;rounded=0;" parent="1" edge="1">
          <mxGeometry width="50" height="50" relative="1" as="geometry">
            <mxPoint x="398.48" y="548.5" as="sourcePoint" />
            <mxPoint x="398.48" y="548.5" as="targetPoint" />
            <Array as="points">
              <mxPoint x="398.48" y="538.5" />
              <mxPoint x="418.48" y="538.5" />
              <mxPoint x="418.48" y="478.5" />
              <mxPoint x="408.48" y="478.5" />
              <mxPoint x="398.48" y="478.5" />
              <mxPoint x="398.48" y="468.5" />
              <mxPoint x="508.48" y="468.5" />
              <mxPoint x="508.48" y="478.5" />
              <mxPoint x="448.48" y="478.5" />
              <mxPoint x="448.48" y="538.5" />
              <mxPoint x="508.48" y="538.5" />
              <mxPoint x="508.48" y="548.5" />
            </Array>
          </mxGeometry>
        </mxCell>
        <mxCell id="DrH6e3tMe2jNyXuOdpQ_-211" value="" style="whiteSpace=wrap;html=1;aspect=fixed;fillColor=#f8cecc;strokeColor=#b85450;" parent="1" vertex="1">
          <mxGeometry x="398.48" y="478.5" width="10" height="10" as="geometry" />
        </mxCell>
        <mxCell id="DrH6e3tMe2jNyXuOdpQ_-212" value="" style="whiteSpace=wrap;html=1;aspect=fixed;fillColor=#f8cecc;strokeColor=#b85450;" parent="1" vertex="1">
          <mxGeometry x="398.48" y="528.5" width="10" height="10" as="geometry" />
        </mxCell>
        <mxCell id="DrH6e3tMe2jNyXuOdpQ_-213" value="" style="endArrow=none;html=1;rounded=0;" parent="1" edge="1">
          <mxGeometry width="50" height="50" relative="1" as="geometry">
            <mxPoint x="508.48" y="538.5" as="sourcePoint" />
            <mxPoint x="508.48" y="478.5" as="targetPoint" />
          </mxGeometry>
        </mxCell>
        <mxCell id="DrH6e3tMe2jNyXuOdpQ_-214" value="" style="ellipse;shape=cloud;whiteSpace=wrap;html=1;fillColor=#e1d5e7;strokeColor=#9673a6;" parent="1" vertex="1">
          <mxGeometry x="448.48" y="478.5" width="60" height="60" as="geometry" />
        </mxCell>
        <mxCell id="DrH6e3tMe2jNyXuOdpQ_-215" value="" style="endArrow=none;html=1;rounded=0;" parent="1" edge="1">
          <mxGeometry width="50" height="50" relative="1" as="geometry">
            <mxPoint x="398.48" y="639.5" as="sourcePoint" />
            <mxPoint x="398.48" y="639.5" as="targetPoint" />
            <Array as="points">
              <mxPoint x="398.48" y="629.5" />
              <mxPoint x="418.48" y="629.5" />
              <mxPoint x="418.48" y="569.5" />
              <mxPoint x="408.48" y="569.5" />
              <mxPoint x="398.48" y="569.5" />
              <mxPoint x="398.48" y="559.5" />
              <mxPoint x="508.48" y="559.5" />
              <mxPoint x="508.48" y="569.5" />
              <mxPoint x="448.48" y="569.5" />
              <mxPoint x="448.48" y="629.5" />
              <mxPoint x="508.48" y="629.5" />
              <mxPoint x="508.48" y="639.5" />
            </Array>
          </mxGeometry>
        </mxCell>
        <mxCell id="DrH6e3tMe2jNyXuOdpQ_-216" value="" style="whiteSpace=wrap;html=1;aspect=fixed;fillColor=#f8cecc;strokeColor=#b85450;" parent="1" vertex="1">
          <mxGeometry x="398.48" y="569.5" width="10" height="10" as="geometry" />
        </mxCell>
        <mxCell id="DrH6e3tMe2jNyXuOdpQ_-217" value="" style="whiteSpace=wrap;html=1;aspect=fixed;fillColor=#f8cecc;strokeColor=#b85450;" parent="1" vertex="1">
          <mxGeometry x="398.48" y="619.5" width="10" height="10" as="geometry" />
        </mxCell>
        <mxCell id="DrH6e3tMe2jNyXuOdpQ_-218" value="" style="endArrow=none;html=1;rounded=0;" parent="1" edge="1">
          <mxGeometry width="50" height="50" relative="1" as="geometry">
            <mxPoint x="508.48" y="629.5" as="sourcePoint" />
            <mxPoint x="508.48" y="569.5" as="targetPoint" />
          </mxGeometry>
        </mxCell>
        <mxCell id="DrH6e3tMe2jNyXuOdpQ_-219" value="" style="ellipse;shape=cloud;whiteSpace=wrap;html=1;fillColor=#e1d5e7;strokeColor=#9673a6;" parent="1" vertex="1">
          <mxGeometry x="448.48" y="569.5" width="60" height="60" as="geometry" />
        </mxCell>
        <mxCell id="DrH6e3tMe2jNyXuOdpQ_-220" value="" style="endArrow=none;html=1;rounded=0;" parent="1" edge="1">
          <mxGeometry width="50" height="50" relative="1" as="geometry">
            <mxPoint x="397.79" y="729.5" as="sourcePoint" />
            <mxPoint x="397.79" y="729.5" as="targetPoint" />
            <Array as="points">
              <mxPoint x="397.79" y="719.5" />
              <mxPoint x="417.79" y="719.5" />
              <mxPoint x="417.79" y="659.5" />
              <mxPoint x="407.79" y="659.5" />
              <mxPoint x="397.79" y="659.5" />
              <mxPoint x="397.79" y="649.5" />
              <mxPoint x="507.78999999999996" y="649.5" />
              <mxPoint x="507.78999999999996" y="659.5" />
              <mxPoint x="447.79" y="659.5" />
              <mxPoint x="447.79" y="719.5" />
              <mxPoint x="507.78999999999996" y="719.5" />
              <mxPoint x="507.78999999999996" y="729.5" />
            </Array>
          </mxGeometry>
        </mxCell>
        <mxCell id="DrH6e3tMe2jNyXuOdpQ_-221" value="" style="whiteSpace=wrap;html=1;aspect=fixed;fillColor=#f8cecc;strokeColor=#b85450;" parent="1" vertex="1">
          <mxGeometry x="397.79" y="659.5" width="10" height="10" as="geometry" />
        </mxCell>
        <mxCell id="DrH6e3tMe2jNyXuOdpQ_-222" value="" style="whiteSpace=wrap;html=1;aspect=fixed;fillColor=#f8cecc;strokeColor=#b85450;" parent="1" vertex="1">
          <mxGeometry x="397.79" y="709.5" width="10" height="10" as="geometry" />
        </mxCell>
        <mxCell id="DrH6e3tMe2jNyXuOdpQ_-223" value="" style="endArrow=none;html=1;rounded=0;" parent="1" edge="1">
          <mxGeometry width="50" height="50" relative="1" as="geometry">
            <mxPoint x="507.78999999999996" y="719.5" as="sourcePoint" />
            <mxPoint x="507.78999999999996" y="659.5" as="targetPoint" />
          </mxGeometry>
        </mxCell>
        <mxCell id="DrH6e3tMe2jNyXuOdpQ_-224" value="" style="ellipse;shape=cloud;whiteSpace=wrap;html=1;fillColor=#e1d5e7;strokeColor=#9673a6;" parent="1" vertex="1">
          <mxGeometry x="447.79" y="659.5" width="60" height="60" as="geometry" />
        </mxCell>
        <mxCell id="DrH6e3tMe2jNyXuOdpQ_-225" value="" style="endArrow=none;html=1;rounded=0;" parent="1" edge="1">
          <mxGeometry width="50" height="50" relative="1" as="geometry">
            <mxPoint x="888.3399999999999" y="549" as="sourcePoint" />
            <mxPoint x="888.3399999999999" y="549" as="targetPoint" />
            <Array as="points">
              <mxPoint x="888.3399999999999" y="539" />
              <mxPoint x="908.3399999999999" y="539" />
              <mxPoint x="908.3399999999999" y="479" />
              <mxPoint x="898.3399999999999" y="479" />
              <mxPoint x="888.3399999999999" y="479" />
              <mxPoint x="888.3399999999999" y="469" />
              <mxPoint x="998.3399999999999" y="469" />
              <mxPoint x="998.3399999999999" y="479" />
              <mxPoint x="938.3399999999999" y="479" />
              <mxPoint x="938.3399999999999" y="539" />
              <mxPoint x="998.3399999999999" y="539" />
              <mxPoint x="998.3399999999999" y="549" />
            </Array>
          </mxGeometry>
        </mxCell>
        <mxCell id="DrH6e3tMe2jNyXuOdpQ_-226" value="" style="whiteSpace=wrap;html=1;aspect=fixed;fillColor=#f8cecc;strokeColor=#b85450;" parent="1" vertex="1">
          <mxGeometry x="888.3399999999999" y="479" width="10" height="10" as="geometry" />
        </mxCell>
        <mxCell id="DrH6e3tMe2jNyXuOdpQ_-227" value="" style="whiteSpace=wrap;html=1;aspect=fixed;fillColor=#f8cecc;strokeColor=#b85450;" parent="1" vertex="1">
          <mxGeometry x="888.3399999999999" y="529" width="10" height="10" as="geometry" />
        </mxCell>
        <mxCell id="DrH6e3tMe2jNyXuOdpQ_-229" value="" style="ellipse;shape=cloud;whiteSpace=wrap;html=1;fillColor=#e1d5e7;strokeColor=#9673a6;" parent="1" vertex="1">
          <mxGeometry x="938.34" y="479" width="111.66" height="60" as="geometry" />
        </mxCell>
        <mxCell id="DrH6e3tMe2jNyXuOdpQ_-230" value="" style="endArrow=none;html=1;rounded=0;" parent="1" edge="1">
          <mxGeometry width="50" height="50" relative="1" as="geometry">
            <mxPoint x="888.3399999999999" y="640" as="sourcePoint" />
            <mxPoint x="888.3399999999999" y="640" as="targetPoint" />
            <Array as="points">
              <mxPoint x="888.3399999999999" y="630" />
              <mxPoint x="908.3399999999999" y="630" />
              <mxPoint x="908.3399999999999" y="570" />
              <mxPoint x="898.3399999999999" y="570" />
              <mxPoint x="888.3399999999999" y="570" />
              <mxPoint x="888.3399999999999" y="560" />
              <mxPoint x="998.3399999999999" y="560" />
              <mxPoint x="998.3399999999999" y="570" />
              <mxPoint x="938.3399999999999" y="570" />
              <mxPoint x="938.3399999999999" y="630" />
              <mxPoint x="998.3399999999999" y="630" />
              <mxPoint x="998.3399999999999" y="640" />
            </Array>
          </mxGeometry>
        </mxCell>
        <mxCell id="DrH6e3tMe2jNyXuOdpQ_-231" value="" style="whiteSpace=wrap;html=1;aspect=fixed;fillColor=#f8cecc;strokeColor=#b85450;" parent="1" vertex="1">
          <mxGeometry x="888.3399999999999" y="570" width="10" height="10" as="geometry" />
        </mxCell>
        <mxCell id="DrH6e3tMe2jNyXuOdpQ_-232" value="" style="whiteSpace=wrap;html=1;aspect=fixed;fillColor=#f8cecc;strokeColor=#b85450;" parent="1" vertex="1">
          <mxGeometry x="888.3399999999999" y="620" width="10" height="10" as="geometry" />
        </mxCell>
        <mxCell id="DrH6e3tMe2jNyXuOdpQ_-233" value="" style="endArrow=none;html=1;rounded=0;" parent="1" edge="1">
          <mxGeometry width="50" height="50" relative="1" as="geometry">
            <mxPoint x="998.3399999999999" y="630" as="sourcePoint" />
            <mxPoint x="998.3399999999999" y="570" as="targetPoint" />
          </mxGeometry>
        </mxCell>
        <mxCell id="DrH6e3tMe2jNyXuOdpQ_-234" value="" style="ellipse;shape=cloud;whiteSpace=wrap;html=1;fillColor=#e1d5e7;strokeColor=#9673a6;" parent="1" vertex="1">
          <mxGeometry x="938.3399999999999" y="570" width="60" height="60" as="geometry" />
        </mxCell>
        <mxCell id="DrH6e3tMe2jNyXuOdpQ_-235" value="" style="endArrow=none;html=1;rounded=0;" parent="1" edge="1">
          <mxGeometry width="50" height="50" relative="1" as="geometry">
            <mxPoint x="887.65" y="730" as="sourcePoint" />
            <mxPoint x="887.65" y="730" as="targetPoint" />
            <Array as="points">
              <mxPoint x="887.65" y="720" />
              <mxPoint x="907.65" y="720" />
              <mxPoint x="907.65" y="660" />
              <mxPoint x="897.65" y="660" />
              <mxPoint x="887.65" y="660" />
              <mxPoint x="887.65" y="650" />
              <mxPoint x="997.6499999999999" y="650" />
              <mxPoint x="997.6499999999999" y="660" />
              <mxPoint x="937.65" y="660" />
              <mxPoint x="937.65" y="720" />
              <mxPoint x="997.6499999999999" y="720" />
              <mxPoint x="997.6499999999999" y="730" />
            </Array>
          </mxGeometry>
        </mxCell>
        <mxCell id="DrH6e3tMe2jNyXuOdpQ_-236" value="" style="whiteSpace=wrap;html=1;aspect=fixed;fillColor=#f8cecc;strokeColor=#b85450;" parent="1" vertex="1">
          <mxGeometry x="887.65" y="660" width="10" height="10" as="geometry" />
        </mxCell>
        <mxCell id="DrH6e3tMe2jNyXuOdpQ_-237" value="" style="whiteSpace=wrap;html=1;aspect=fixed;fillColor=#f8cecc;strokeColor=#b85450;" parent="1" vertex="1">
          <mxGeometry x="887.65" y="710" width="10" height="10" as="geometry" />
        </mxCell>
        <mxCell id="DrH6e3tMe2jNyXuOdpQ_-238" value="" style="endArrow=none;html=1;rounded=0;" parent="1" edge="1">
          <mxGeometry width="50" height="50" relative="1" as="geometry">
            <mxPoint x="997.6499999999999" y="720" as="sourcePoint" />
            <mxPoint x="997.6499999999999" y="660" as="targetPoint" />
          </mxGeometry>
        </mxCell>
        <mxCell id="DrH6e3tMe2jNyXuOdpQ_-239" value="" style="ellipse;shape=cloud;whiteSpace=wrap;html=1;fillColor=#e1d5e7;strokeColor=#9673a6;" parent="1" vertex="1">
          <mxGeometry x="937.65" y="660" width="60" height="60" as="geometry" />
        </mxCell>
        <mxCell id="DrH6e3tMe2jNyXuOdpQ_-240" value="" style="rounded=0;whiteSpace=wrap;html=1;fillColor=#f8cecc;strokeColor=#b85450;" parent="1" vertex="1">
          <mxGeometry x="798.3399999999999" y="489" width="100" height="40" as="geometry" />
        </mxCell>
        <mxCell id="DrH6e3tMe2jNyXuOdpQ_-257" value="identische Empfänger mit gleicher Adresse können mehrfach im System vorkommen" style="text;html=1;strokeColor=none;fillColor=none;align=center;verticalAlign=middle;whiteSpace=wrap;rounded=0;fontSize=16;" parent="1" vertex="1">
          <mxGeometry x="368.89" y="11" width="161.11" height="80" as="geometry" />
        </mxCell>
        <mxCell id="DrH6e3tMe2jNyXuOdpQ_-258" value="..." style="text;html=1;strokeColor=none;fillColor=none;align=center;verticalAlign=middle;whiteSpace=wrap;rounded=0;rotation=90;fontSize=30;" parent="1" vertex="1">
          <mxGeometry x="425" y="360" width="60" height="30" as="geometry" />
        </mxCell>
        <mxCell id="DrH6e3tMe2jNyXuOdpQ_-259" value="..." style="text;html=1;strokeColor=none;fillColor=none;align=center;verticalAlign=middle;whiteSpace=wrap;rounded=0;rotation=90;fontSize=30;" parent="1" vertex="1">
          <mxGeometry x="425" y="735" width="60" height="30" as="geometry" />
        </mxCell>
        <mxCell id="DrH6e3tMe2jNyXuOdpQ_-260" value="..." style="text;html=1;strokeColor=none;fillColor=none;align=center;verticalAlign=middle;whiteSpace=wrap;rounded=0;rotation=90;fontSize=30;" parent="1" vertex="1">
          <mxGeometry x="920" y="360" width="60" height="30" as="geometry" />
        </mxCell>
        <mxCell id="DrH6e3tMe2jNyXuOdpQ_-261" value="..." style="text;html=1;strokeColor=none;fillColor=none;align=center;verticalAlign=middle;whiteSpace=wrap;rounded=0;rotation=90;fontSize=30;" parent="1" vertex="1">
          <mxGeometry x="920" y="735" width="60" height="30" as="geometry" />
        </mxCell>
        <mxCell id="DrH6e3tMe2jNyXuOdpQ_-263" value="Empfänger aktiviert" style="text;html=1;strokeColor=none;fillColor=none;align=center;verticalAlign=middle;whiteSpace=wrap;rounded=0;fontSize=16;" parent="1" vertex="1">
          <mxGeometry x="1010" y="448.5" width="60" height="30" as="geometry" />
        </mxCell>
        <mxCell id="DrH6e3tMe2jNyXuOdpQ_-264" value="Nachricht binden" style="text;html=1;strokeColor=none;fillColor=none;align=center;verticalAlign=middle;whiteSpace=wrap;rounded=0;fontSize=16;" parent="1" vertex="1">
          <mxGeometry x="810" y="449" width="60" height="30" as="geometry" />
        </mxCell>
      </root>
    </mxGraphModel>
  </diagram>
</mxfile>
